<svg xmlns="http://www.w3.org/2000/svg" width="200" height="200" viewBox="0 0 200 200">
  <!-- Background shield -->
  <path d="M100 10 L180 50 L180 110 C180 150 140 180 100 190 C60 180 20 150 20 110 L20 50 Z" fill="#0047AB" stroke="#0066CC" stroke-width="4"/>
  <!-- Inner design -->
  <path d="M100 30 L160 60 L160 105 C160 135 130 160 100 170 C70 160 40 135 40 105 L40 60 Z" fill="#0066CC" opacity="0.5"/>
  <!-- Ship/anchor symbol -->
  <polygon points="100,60 85,90 95,90 95,120 105,120 105,90 115,90" fill="#ffffff"/>
  <line x1="70" y1="120" x2="130" y2="120" stroke="#ffffff" stroke-width="4"/>
  <circle cx="100" cy="120" r="8" fill="#FFD700"/>
  <!-- Text BC -->
  <text x="100" y="175" font-family="Arial Black, sans-serif" font-size="24" font-weight="bold" text-anchor="middle" fill="#ffffff">BLUE CITY</text>
</svg>
