<svg xmlns="http://www.w3.org/2000/svg" width="200" height="200" viewBox="0 0 200 200">
  <!-- Background shield -->
  <path d="M100 10 L180 50 L180 110 C180 150 140 180 100 190 C60 180 20 150 20 110 L20 50 Z" fill="#8B0000" stroke="#A52A2A" stroke-width="4"/>
  <!-- Inner design -->
  <path d="M100 30 L160 60 L160 105 C160 135 130 160 100 170 C70 160 40 135 40 105 L40 60 Z" fill="#A52A2A" opacity="0.5"/>
  <!-- Ball in center -->
  <circle cx="100" cy="95" r="35" fill="#ffffff" opacity="0.9"/>
  <path d="M100 65 L115 80 L125 75 L120 95 L140 100 L120 110 L125 130 L105 115 L100 135 L95 115 L75 130 L80 110 L60 100 L80 95 L75 75 L85 80 Z" fill="#8B0000"/>
  <!-- Text FC -->
  <text x="100" y="175" font-family="Arial Black, sans-serif" font-size="24" font-weight="bold" text-anchor="middle" fill="#ffffff">FC RED</text>
</svg>
